<svg width="17" height="14" viewBox="0 0 17 14" fill="none" xmlns="http://www.w3.org/2000/svg">
<path d="M6.82918 9.46093C6.82918 10.1685 6.45197 11.3262 5.55912 11.3262C4.66628 11.3262 4.28907 10.1685 4.28907 9.46093C4.28907 8.7534 4.66628 7.59562 5.55912 7.59562C6.45197 7.59562 6.82918 8.7534 6.82918 9.46093ZM17 7.75135C17 8.83126 16.8893 9.9755 16.3944 10.9674C15.0828 13.5605 11.4768 13.4996 8.89519 13.4996C6.27202 13.4996 2.45146 13.591 1.08797 10.9674C0.582712 9.98566 0.388916 8.83126 0.388916 7.75135C0.388916 6.3329 0.869946 4.99231 1.82508 3.90563C1.64513 3.37075 1.55861 2.80879 1.55861 2.25359C1.55861 1.52575 1.72819 1.16014 2.06387 0.5C3.63154 0.5 4.63513 0.804678 5.82905 1.71871C6.83264 1.48513 7.86392 1.38018 8.89865 1.38018C9.83302 1.38018 10.7743 1.47836 11.681 1.69163C12.8576 0.787752 13.8612 0.5 15.4116 0.5C15.7507 1.16014 15.9168 1.52575 15.9168 2.25359C15.9168 2.80879 15.8269 3.36059 15.6504 3.88532C16.6021 4.98216 17 6.3329 17 7.75135ZM14.7748 9.46093C14.7748 7.97478 13.8508 6.66466 12.2313 6.66466C11.5772 6.66466 10.9508 6.77976 10.2933 6.86778C9.77765 6.94564 9.26202 6.97611 8.73254 6.97611C8.20652 6.97611 7.69088 6.94564 7.17179 6.86778C6.52464 6.77976 5.89135 6.66466 5.23382 6.66466C3.61424 6.66466 2.69025 7.97478 2.69025 9.46093C2.69025 12.4332 5.47261 12.8903 7.89506 12.8903H9.56309C11.9959 12.8903 14.7748 12.4366 14.7748 9.46093ZM11.9163 7.59562C11.0235 7.59562 10.6463 8.7534 10.6463 9.46093C10.6463 10.1685 11.0235 11.3262 11.9163 11.3262C12.8092 11.3262 13.1864 10.1685 13.1864 9.46093C13.1864 8.7534 12.8092 7.59562 11.9163 7.59562Z" fill="#8C8C8C"/>
</svg>
