<svg width="15" height="14" viewBox="0 0 15 14" fill="none" xmlns="http://www.w3.org/2000/svg">
<path d="M9.88882 4.28972C9.47946 1.76865 8.51394 -0.00146484 7.39033 -0.00146484C6.26671 -0.00146484 5.3012 1.76865 4.89184 4.28972H9.88882ZM4.6801 6.99995C4.6801 7.62669 4.71398 8.22802 4.77327 8.80676H10.0046C10.0639 8.22802 10.0977 7.62669 10.0977 6.99995C10.0977 6.37321 10.0639 5.77188 10.0046 5.19313H4.77327C4.71398 5.77188 4.6801 6.37321 4.6801 6.99995ZM13.8469 4.28972C13.0395 2.3728 11.4048 0.890651 9.38629 0.292143C10.0751 1.24637 10.5494 2.68335 10.7979 4.28972H13.8469ZM5.39154 0.292143C3.37581 0.890651 1.73838 2.3728 0.933784 4.28972H3.98279C4.2284 2.68335 4.70269 1.24637 5.39154 0.292143ZM14.1489 5.19313H10.9108C10.9701 5.78599 11.004 6.39297 11.004 6.99995C11.004 7.60692 10.9701 8.2139 10.9108 8.80676H14.1461C14.3014 8.22802 14.3889 7.62669 14.3889 6.99995C14.3889 6.37321 14.3014 5.77188 14.1489 5.19313ZM3.7767 6.99995C3.7767 6.39297 3.81057 5.78599 3.86986 5.19313H0.631707C0.479257 5.77188 0.388916 6.37321 0.388916 6.99995C0.388916 7.62669 0.479257 8.22802 0.631707 8.80676H3.86704C3.81057 8.2139 3.7767 7.60692 3.7767 6.99995ZM4.89184 9.71017C5.3012 12.2312 6.26671 14.0014 7.39033 14.0014C8.51394 14.0014 9.47946 12.2312 9.88882 9.71017H4.89184ZM9.38912 13.7078C11.4048 13.1092 13.0423 11.6271 13.8497 9.71017H10.8007C10.5523 11.3165 10.078 12.7535 9.38912 13.7078ZM0.933784 9.71017C1.7412 11.6271 3.37581 13.1092 5.39436 13.7078C4.70551 12.7535 4.23122 11.3165 3.98279 9.71017H0.933784Z" fill="#8C8C8C"/>
</svg>
